# xmcd
#
# Track frame offsets: 
#        150
#        12700
#        23287
#        35567
#        45930
#        57335
#        67985
#        79367
#        92220
#        104317
#        115625
#        129262
#        142107
#        153565
#        166677
#        178302
#        190132
#        200035
#        212607
#        223982
#        237547
#        249240
#        259860
#        271377
#        282870
#        293390
#        303815
#        313820
#        324577
#        336387
#
# Disc length: 4660 seconds
#
# Revision: 3
# Processed by: cddbd v1.5.2PL0 Copyright (c) Steve Scherf et al.
# Submitted via: ExactAudioCopyFreeDBPlugin 1.0
#
DISCID=ba12321e
DTITLE=Various Artist - A Shot in the Dark:  Tennessee Jive - Country
DTITLE=on Nashville Independent Labels, 1945-1955 [Bear Family box se
DTITLE=t]
DYEAR=2000
DGENRE=Country
TTITLE0=Buddy Estes - With All Your Heart
TTITLE1=Georgia Jim - Flyin' Saucer Baby
TTITLE2=Georgia Jim - Jigsaw Puzzle Heart
TTITLE3=Lattie Moore - Juke Joint Johnny
TTITLE4=Lattie Moore - It's Good Enough for You
TTITLE5=Tennessee Slim - Doghouse Blues
TTITLE6=Tennessee Slim - It's Raining Tears
TTITLE7=Joedy Lee - The Devil Paid Me (With a Mother in Law)
TTITLE8=Lattie Moore - My First Love
TTITLE9=Lattie Moore - Baby I'll Be Gone Soon
TTITLE10=Tennessee Slim - It's Your Turn to Cry
TTITLE11=Tennessee Slim - I'm an Old Wolf
TTITLE12=Shorty Sargent - Night Life and Wine
TTITLE13=Shorty Sargent - You'd Better Think Again
TTITLE14=Chickie King - Lovie Lovie
TTITLE15=Tex Cronas - Patches on My Heart
TTITLE16=Betty Jo - You'll Need My Help
TTITLE17=Jack Toombs - Pinball Fever
TTITLE18=Little Bun Wilson - Confess That You're Mine
TTITLE19=Tennessee Slim - One Sided Love Affair
TTITLE20=Tennessee Slim - Crazy Hazy Kisses
TTITLE21=Bobby Helms - Yesterday's Lovin'
TTITLE22=Bobby Helms - Hangin' Around
TTITLE23=Bob Rogers - Little Bit Late for Lovin'
TTITLE24=Bob Rogers - I Want to Be Babied By a Gal Like You
TTITLE25=Little Bun Wilson - This Lesson of Love
TTITLE26=Bobby Helms - Freedom Lovin' Guy
TTITLE27=Chickie King - I Need Your Lovin'
TTITLE28=Billie Wilson - Hen Pecked Boogie
TTITLE29=Billie Wilson - I Can't Stop Lovin' You
EXTD=Volume #5 of a 8-CD Box Set -BCD 15854
EXTT0=
EXTT1=
EXTT2=
EXTT3=
EXTT4=
EXTT5=
EXTT6=
EXTT7=
EXTT8=
EXTT9=
EXTT10=
EXTT11=
EXTT12=
EXTT13=
EXTT14=
EXTT15=
EXTT16=
EXTT17=
EXTT18=
EXTT19=
EXTT20=
EXTT21=
EXTT22=
EXTT23=
EXTT24=
EXTT25=
EXTT26=
EXTT27=
EXTT28=
EXTT29=
PLAYORDER=
